# 3ds Max Wavefront OBJ Exporter v0.97b - (c)2007 guruware
# File Created: 15.07.2015 17:54:09

#
# object col_Brazier_03
#

v  6.9158 45.3934 44.2188
v  -7.1085 45.3934 44.4448
v  -11.4772 0.0000 61.5702
v  11.3709 0.0000 61.4756
v  26.8157 0.0000 48.8272
v  19.9373 42.9115 37.1025
v  48.7595 0.0000 26.8835
v  37.0732 42.9115 19.9667
v  61.5702 0.0000 11.4772
v  44.4448 45.3934 7.1085
v  61.4756 0.0000 -11.3709
v  44.2188 45.3934 -6.9158
v  17.7635 42.9115 30.7673
v  9.1951 45.3934 34.3165
v  30.7673 42.9115 17.7635
v  34.3165 45.3934 9.1951
v  8.7043 31.5278 32.4849
v  -8.7043 31.5278 32.4849
v  -9.1951 45.3934 34.3165
v  16.8154 31.5278 29.1252
v  29.1251 31.5278 16.8154
v  32.4849 31.5278 8.7043
v  34.3165 45.3934 -9.1951
v  32.4849 31.5278 -8.7043
v  -0.0000 40.4120 3.6457
v  48.8272 0.0000 -26.8157
v  37.1025 42.9115 -19.9373
v  26.8835 0.0000 -48.7595
v  19.9667 42.9115 -37.0732
v  11.4772 0.0000 -61.5702
v  7.1085 45.3934 -44.4448
v  30.7673 42.9115 -17.7635
v  17.7635 42.9115 -30.7673
v  9.1951 45.3934 -34.3165
v  29.1252 31.5278 -16.8154
v  16.8154 31.5278 -29.1251
v  8.7043 31.5278 -32.4849
v  -9.1951 45.3934 -34.3165
v  -8.7043 31.5278 -32.4849
v  -11.3709 0.0000 -61.4756
v  -6.9158 45.3934 -44.2188
v  -26.8157 0.0000 -48.8272
v  -19.9373 42.9115 -37.1025
v  -48.7595 0.0000 -26.8835
v  -37.0732 42.9115 -19.9667
v  -61.5702 0.0000 -11.4771
v  -44.4448 45.3934 -7.1085
v  -17.7635 42.9115 -30.7673
v  -30.7673 42.9115 -17.7635
v  -34.3165 45.3934 -9.1951
v  -44.2188 45.3934 6.9158
v  -34.3165 45.3934 9.1951
v  -16.8154 31.5278 -29.1252
v  -29.1251 31.5278 -16.8154
v  -32.4849 31.5278 -8.7043
v  -32.4849 31.5278 8.7043
v  -61.4756 0.0000 11.3709
v  -48.8272 0.0000 26.8157
v  -37.1025 42.9115 19.9373
v  -26.8835 0.0000 48.7595
v  -19.9667 42.9115 37.0732
v  -30.7673 42.9115 17.7635
v  -17.7635 42.9115 30.7673
v  -29.1252 31.5278 16.8154
v  -16.8154 31.5278 29.1251
# 65 vertices

vn 0.2525 0.3635 0.8967
vn -0.2608 0.3467 0.9010
vn -0.3082 0.3629 0.8794
vn 0.3014 0.3500 0.8869
vn 0.6397 0.2963 0.7092
vn 0.6013 0.3179 0.7331
vn 0.7106 0.3109 0.6312
vn 0.7439 0.2989 0.5977
vn 0.8796 0.3616 0.3092
vn 0.8998 0.3486 0.2624
vn 0.8871 0.3487 -0.3024
vn 0.8955 0.3654 -0.2540
vn 0.0774 0.9970 0.0045
vn 0.0967 0.9948 -0.0332
vn 0.0892 0.9960 -0.0057
vn 0.1899 0.9808 0.0437
vn -0.0182 0.9897 0.1422
vn -0.0369 0.9937 0.1057
vn 0.0145 0.9974 0.0705
vn 0.0039 0.9906 0.1370
vn -0.1922 0.1352 -0.9720
vn 0.1842 0.1434 -0.9724
vn 0.1605 0.1348 -0.9778
vn -0.1652 0.1421 -0.9760
vn -0.5144 0.1643 -0.8417
vn -0.5431 0.1550 -0.8253
vn -0.8374 0.1545 -0.5243
vn -0.8195 0.1640 -0.5492
vn -0.9778 0.1348 -0.1605
vn -0.9724 0.1434 -0.1842
vn -0.9760 0.1421 0.1652
vn -0.9720 0.1352 0.1922
vn 0.0581 0.9589 0.2779
vn -0.0000 0.9996 0.0279
vn -0.0581 0.9589 0.2779
vn 0.1551 0.9602 0.2324
vn 0.2274 0.9627 0.1465
vn 0.2562 0.9653 0.0498
vn 0.2446 0.9682 -0.0530
vn 0.7092 0.2963 -0.6397
vn 0.7331 0.3179 -0.6013
vn 0.6312 0.3109 -0.7106
vn 0.5977 0.2989 -0.7439
vn 0.3092 0.3616 -0.8796
vn 0.2624 0.3486 -0.8998
vn 0.0437 0.9808 -0.1899
vn 0.0045 0.9970 -0.0774
vn -0.0332 0.9948 -0.0967
vn -0.0057 0.9960 -0.0892
vn 0.1422 0.9897 0.0182
vn 0.1057 0.9937 0.0369
vn 0.0705 0.9974 -0.0145
vn 0.1370 0.9906 -0.0039
vn -0.8417 0.1643 0.5144
vn -0.8253 0.1550 0.5431
vn -0.5243 0.1545 0.8374
vn -0.5492 0.1640 0.8195
vn -0.1605 0.1348 0.9778
vn -0.1842 0.1434 0.9724
vn 0.1652 0.1421 0.9760
vn 0.1922 0.1352 0.9720
vn 0.2011 0.9702 -0.1351
vn 0.1286 0.9718 -0.1975
vn 0.0463 0.9726 -0.2280
vn -0.0463 0.9726 -0.2280
vn -0.3024 0.3487 -0.8871
vn -0.2540 0.3654 -0.8955
vn -0.6397 0.2963 -0.7092
vn -0.6013 0.3179 -0.7331
vn -0.7106 0.3109 -0.6312
vn -0.7439 0.2989 -0.5977
vn -0.8794 0.3629 -0.3082
vn -0.9010 0.3467 -0.2608
vn -0.1899 0.9808 -0.0437
vn -0.0774 0.9970 -0.0045
vn -0.0967 0.9948 0.0332
vn -0.0892 0.9960 0.0057
vn 0.0182 0.9897 -0.1422
vn 0.0369 0.9937 -0.1057
vn -0.0145 0.9974 -0.0705
vn -0.0039 0.9906 -0.1370
vn -0.0045 0.9970 0.0774
vn -0.0437 0.9808 0.1899
vn 0.5144 0.1643 0.8417
vn 0.5431 0.1550 0.8253
vn 0.8374 0.1545 0.5243
vn 0.8195 0.1640 0.5492
vn 0.9778 0.1348 0.1605
vn 0.9724 0.1434 0.1842
vn 0.9760 0.1421 -0.1652
vn 0.9720 0.1352 -0.1922
vn -0.1286 0.9718 -0.1975
vn -0.2011 0.9702 -0.1351
vn -0.2446 0.9682 -0.0530
vn -0.2562 0.9653 0.0498
vn -0.8967 0.3635 0.2525
vn -0.8869 0.3500 0.3014
vn -0.7092 0.2963 0.6397
vn -0.7331 0.3179 0.6013
vn -0.6312 0.3109 0.7106
vn -0.5977 0.2989 0.7439
vn 0.0332 0.9948 0.0967
vn 0.0057 0.9960 0.0892
vn -0.1422 0.9897 -0.0182
vn -0.1057 0.9937 -0.0369
vn -0.0705 0.9974 0.0145
vn -0.1370 0.9906 0.0039
vn 0.8417 0.1643 -0.5144
vn 0.8253 0.1550 -0.5431
vn 0.5243 0.1545 -0.8374
vn 0.5492 0.1640 -0.8195
vn -0.2274 0.9627 0.1465
vn -0.1551 0.9602 0.2324
# 113 vertex normals

vt 0.7752 0.9690 1.0000
vt 0.7083 1.0000 1.0000
vt 0.7083 0.0000 1.0000
vt 0.7913 -0.0005 1.0000
vt 0.5417 0.0000 1.0000
vt 0.5833 0.0000 1.0000
vt 0.5833 1.0000 1.0000
vt 0.5417 1.0000 1.0000
vt 0.6667 0.0000 1.0000
vt 0.6667 1.0000 1.0000
vt 0.9830 0.6294 0.2500
vt 0.9330 0.7500 0.2500
vt 0.7500 0.9330 0.2500
vt 0.6294 0.9830 0.2500
vt 0.3831 1.0154 0.2500
vt 0.3772 1.0162 0.2500
vt 0.3710 0.9819 0.2500
vt 0.5000 0.5000 0.2500
vt 0.9851 0.3743 0.2500
vt 0.3557 1.0190 0.2500
vt 0.3939 1.0140 0.2500
vt 0.3708 0.9879 0.2500
vt 0.3743 0.9851 0.2500
# 23 texture coords

g col_Brazier_03
s 1
f 1/1/1 2/2/2 3/3/3 4/4/4 
f 4/5/4 5/6/5 6/7/6 1/8/1 
f 5/6/5 7/9/7 8/10/8 6/7/6 
f 7/9/7 9/3/9 10/2/10 8/10/8 
f 11/4/11 12/1/12 10/2/10 9/3/9 
s 2
f 1/11/13 6/12/14 13/12/15 14/11/16 
f 6/12/14 8/13/17 15/13/18 13/12/15 
f 8/13/17 10/14/19 16/14/20 15/13/18 
s 1
f 17/15/21 18/14/22 19/14/23 14/16/24 
f 14/11/24 13/12/25 20/12/26 17/11/21 
f 13/12/25 15/13/27 21/13/28 20/12/26 
f 15/13/27 16/14/29 22/14/30 21/13/28 
f 16/14/29 23/16/31 24/15/32 22/14/30 
s 2
f 17/17/33 25/18/34 18/14/35 
f 17/11/33 20/12/36 25/18/34 
f 20/12/36 21/13/37 25/18/34 
f 21/13/37 22/14/38 25/18/34 
f 22/19/38 24/11/39 25/18/34 
s 1
f 11/5/11 26/6/40 27/7/41 12/8/12 
f 26/6/40 28/9/42 29/10/43 27/7/41 
f 28/9/42 30/3/44 31/2/45 29/10/43 
s 2
f 23/20/46 16/14/20 10/14/19 12/21/47 
f 12/11/47 27/12/48 32/12/49 23/11/46 
f 27/12/48 29/13/50 33/13/51 32/12/49 
f 29/13/50 31/14/52 34/14/53 33/13/51 
s 1
f 23/11/31 32/12/54 35/12/55 24/11/32 
f 32/12/54 33/13/56 36/13/57 35/12/55 
f 33/13/56 34/14/58 37/14/59 36/13/57 
f 34/14/58 38/16/60 39/15/61 37/14/59 
s 2
f 24/11/39 35/12/62 25/18/34 
f 35/12/62 36/13/63 25/18/34 
f 36/13/63 37/14/64 25/18/34 
f 37/14/64 39/22/65 25/18/34 
s 1
f 40/4/66 41/1/67 31/2/45 30/3/44 
f 40/5/66 42/6/68 43/7/69 41/8/67 
f 42/6/68 44/9/70 45/10/71 43/7/69 
f 44/9/70 46/3/72 47/2/73 45/10/71 
s 2
f 38/20/74 34/14/53 31/14/52 41/21/75 
f 41/11/75 43/12/76 48/12/77 38/11/74 
f 43/12/76 45/13/78 49/13/79 48/12/77 
f 45/13/78 47/14/80 50/14/81 49/13/79 
f 47/14/80 51/21/82 52/20/83 50/14/81 
s 1
f 38/11/60 48/12/84 53/12/85 39/11/61 
f 48/12/84 49/13/86 54/13/87 53/12/85 
f 49/13/86 50/14/88 55/14/89 54/13/87 
f 50/14/88 52/16/90 56/15/91 55/14/89 
s 2
f 39/11/65 53/12/92 25/18/34 
f 53/12/92 54/13/93 25/18/34 
f 54/13/93 55/14/94 25/18/34 
f 55/14/94 56/23/95 25/18/34 
s 1
f 51/1/96 47/2/73 46/3/72 57/4/97 
f 57/5/97 58/6/98 59/7/99 51/8/96 
f 58/6/98 60/9/100 61/10/101 59/7/99 
f 60/9/100 3/3/3 2/2/2 61/10/101 
s 2
f 51/11/82 59/12/102 62/12/103 52/11/83 
f 59/12/102 61/13/104 63/13/105 62/12/103 
f 61/13/104 2/14/106 19/14/107 63/13/105 
f 1/21/13 14/20/16 19/14/107 2/14/106 
s 1
f 52/11/90 62/12/108 64/12/109 56/11/91 
f 62/12/108 63/13/110 65/13/111 64/12/109 
f 63/13/110 19/14/23 18/14/22 65/13/111 
s 2
f 56/11/95 64/12/112 25/18/34 
f 64/12/112 65/13/113 25/18/34 
f 65/13/113 18/14/35 25/18/34 
# 48 polygons - 16 triangles

