# 3ds Max Wavefront OBJ Exporter v0.97b - (c)2007 guruware
# File Created: 15.07.2015 17:54:31

#
# object col_Brazier_03_Frame
#

v  -13.0470 60.6000 -38.9576
v  -11.8159 60.6000 -35.9601
v  0.0000 63.4789 -37.6656
v  0.0000 63.4833 -42.1418
v  -28.6549 63.6862 -28.6779
v  -26.8652 63.6862 -27.0241
v  -36.2077 60.6000 -12.1652
v  -39.7790 60.6000 -13.4129
v  -37.7506 63.4890 -0.0000
v  -41.2367 63.4993 -0.0000
v  -36.5125 45.3934 -8.7427
v  -32.1346 42.9115 -18.2412
v  -26.8652 42.9115 -27.0241
v  -18.2348 42.9115 -32.1409
v  -8.7008 45.3934 -36.4635
v  0.0000 45.3934 -36.4880
v  -7.4100 45.3934 -42.0717
v  -19.4660 42.9115 -35.7289
v  0.0000 63.3174 -42.1593
v  -28.6549 42.9115 -28.6779
v  -35.7059 42.9115 -19.4890
v  -42.2487 45.3934 -7.5609
v  -42.1593 45.3934 -0.0000
v  -41.2562 63.3174 -0.0000
v  0.0000 45.3934 -42.1593
v  13.0470 60.6000 -38.9576
v  11.8159 60.6000 -35.9601
v  28.6549 63.6862 -28.6779
v  26.8652 63.6862 -27.0241
v  36.2077 60.6000 -12.1652
v  39.7790 60.6000 -13.4129
v  37.7505 63.4890 -0.0000
v  41.2367 63.4993 -0.0000
v  36.5125 45.3934 -8.7427
v  32.1346 42.9115 -18.2412
v  26.8652 42.9115 -27.0241
v  18.2348 42.9115 -32.1409
v  8.7008 45.3934 -36.4635
v  7.4100 45.3934 -42.0717
v  19.4660 42.9115 -35.7289
v  28.6549 42.9115 -28.6779
v  35.7059 42.9115 -19.4890
v  42.2487 45.3934 -7.5609
v  41.2562 63.3174 -0.0000
v  42.1593 45.3934 -0.0000
v  -36.4880 45.3934 -0.0000
v  36.4880 45.3934 -0.0000
v  -13.0470 60.6000 38.9576
v  0.0000 63.4833 42.1418
v  0.0000 63.4789 37.6656
v  -11.8159 60.6000 35.9601
v  -28.6549 63.6862 28.6779
v  -26.8652 63.6862 27.0241
v  -36.2077 60.6000 12.1652
v  -39.7790 60.6000 13.4129
v  -36.5125 45.3934 8.7427
v  -32.1346 42.9115 18.2412
v  -26.8652 42.9115 27.0241
v  -18.2348 42.9115 32.1409
v  -8.7008 45.3934 36.4635
v  0.0000 45.3934 36.4880
v  -7.4100 45.3934 42.0717
v  0.0000 63.3174 42.1593
v  -19.4660 42.9115 35.7289
v  -28.6549 42.9115 28.6779
v  -35.7059 42.9115 19.4890
v  -42.2487 45.3934 7.5609
v  0.0000 45.3934 42.1593
v  13.0470 60.6000 38.9576
v  11.8159 60.6000 35.9601
v  28.6549 63.6862 28.6779
v  26.8652 63.6862 27.0241
v  36.2077 60.6000 12.1652
v  39.7790 60.6000 13.4129
v  36.5125 45.3934 8.7427
v  32.1346 42.9115 18.2412
v  26.8652 42.9115 27.0241
v  18.2348 42.9115 32.1409
v  8.7008 45.3934 36.4635
v  7.4100 45.3934 42.0717
v  19.4660 42.9115 35.7289
v  28.6549 42.9115 28.6779
v  35.7059 42.9115 19.4890
v  42.2487 45.3934 7.5609
# 84 vertices

vn -0.0377 0.9993 0.0050
vn -0.0419 0.9990 0.0142
vn 0.0000 0.9999 0.0138
vn 0.0000 1.0000 0.0010
vn 0.0027 0.9999 0.0106
vn 0.0052 1.0000 -0.0056
vn 0.0084 0.9995 -0.0319
vn 0.0055 0.9993 -0.0357
vn 0.0151 0.9999 -0.0000
vn 0.0030 1.0000 -0.0000
vn 0.9744 0.0596 0.2166
vn 0.8743 0.0269 0.4846
vn 0.9420 0.0205 0.3350
vn 0.9996 0.0289 -0.0000
vn 0.7054 0.0002 0.7088
vn 0.7000 0.0039 0.7141
vn 0.4757 0.0173 0.8794
vn 0.3316 0.0074 0.9434
vn 0.2230 0.0463 0.9737
vn 0.0000 0.0198 0.9998
vn 0.0000 0.0650 0.9979
vn -0.2611 0.0275 -0.9649
vn -0.5423 0.0161 -0.8400
vn -0.4177 0.0594 -0.9066
vn -0.0000 0.1051 -0.9945
vn 0.0000 0.0916 -0.9958
vn -0.7116 0.0064 -0.7025
vn -0.6979 0.0143 -0.7161
vn -0.8493 0.0449 -0.5260
vn -0.9513 -0.1271 -0.2807
vn -0.9243 0.1899 -0.3310
vn -0.9997 -0.0000 -0.0227
vn -0.9986 0.0509 0.0115
vn 1.0000 0.0000 -0.0000
vn 0.0000 0.0000 -1.0000
vn 0.0377 0.9993 0.0050
vn 0.0419 0.9990 0.0142
vn -0.0027 0.9999 0.0106
vn -0.0052 1.0000 -0.0056
vn -0.0084 0.9995 -0.0319
vn -0.0055 0.9993 -0.0357
vn -0.0151 0.9999 0.0000
vn -0.0030 1.0000 -0.0000
vn -0.9744 0.0596 0.2166
vn -0.9996 0.0289 -0.0000
vn -0.9420 0.0205 0.3350
vn -0.8743 0.0269 0.4846
vn -0.7000 0.0039 0.7141
vn -0.7054 0.0002 0.7088
vn -0.3316 0.0074 0.9434
vn -0.4757 0.0173 0.8794
vn -0.2230 0.0463 0.9737
vn 0.2611 0.0275 -0.9649
vn 0.4177 0.0594 -0.9066
vn 0.5423 0.0161 -0.8400
vn 0.6979 0.0143 -0.7161
vn 0.7116 0.0064 -0.7025
vn 0.9513 -0.1271 -0.2807
vn 0.8493 0.0449 -0.5260
vn 0.9997 -0.0000 -0.0226
vn 0.9243 0.1899 -0.3310
vn 0.9986 0.0509 0.0114
vn 0.9976 0.0696 -0.0000
vn -0.9976 0.0696 -0.0000
vn -0.0377 0.9993 -0.0050
vn 0.0000 1.0000 -0.0010
vn -0.0000 0.9999 -0.0138
vn -0.0419 0.9990 -0.0142
vn 0.0027 0.9999 -0.0106
vn 0.0052 1.0000 0.0056
vn 0.0084 0.9995 0.0319
vn 0.0055 0.9993 0.0357
vn 0.9744 0.0596 -0.2166
vn 0.9420 0.0205 -0.3350
vn 0.8743 0.0269 -0.4846
vn 0.7000 0.0039 -0.7141
vn 0.7054 0.0002 -0.7088
vn 0.3316 0.0074 -0.9434
vn 0.4757 0.0173 -0.8794
vn 0.0000 0.0198 -0.9998
vn 0.2230 0.0463 -0.9737
vn -0.0000 0.0650 -0.9979
vn -0.2611 0.0275 0.9649
vn -0.0000 0.0916 0.9958
vn 0.0000 0.1051 0.9945
vn -0.4177 0.0594 0.9066
vn -0.5423 0.0161 0.8400
vn -0.6979 0.0143 0.7161
vn -0.7116 0.0064 0.7025
vn -0.9513 -0.1271 0.2807
vn -0.8493 0.0449 0.5260
vn -0.9243 0.1899 0.3310
vn 0.0000 0.0000 1.0000
vn -0.9986 0.0509 -0.0118
vn 0.0377 0.9993 -0.0050
vn 0.0419 0.9990 -0.0142
vn -0.0027 0.9999 -0.0106
vn -0.0052 1.0000 0.0056
vn -0.0084 0.9995 0.0319
vn -0.0055 0.9993 0.0357
vn -0.9744 0.0596 -0.2166
vn -0.8743 0.0269 -0.4846
vn -0.9420 0.0205 -0.3350
vn -0.7054 0.0002 -0.7088
vn -0.7000 0.0039 -0.7141
vn -0.4757 0.0173 -0.8794
vn -0.3316 0.0074 -0.9434
vn -0.2230 0.0463 -0.9737
vn 0.2611 0.0275 0.9649
vn 0.5423 0.0161 0.8400
vn 0.4177 0.0594 0.9066
vn 0.7116 0.0064 0.7025
vn 0.6979 0.0143 0.7161
vn 0.8493 0.0449 0.5260
vn 0.9513 -0.1271 0.2807
vn 0.9243 0.1899 0.3310
vn 0.9986 0.0509 -0.0118
# 117 vertex normals

vt 0.9330 0.7500 0.2500
vt 0.9829 0.6295 0.2500
vt 0.9827 0.6301 0.2500
vt 0.8536 0.8536 0.2500
vt 0.7500 0.9330 0.2500
vt 0.4902 1.0013 0.2500
vt 0.4610 1.0051 0.2500
vt 0.6294 0.9830 0.2500
vt 0.9830 0.6294 0.2500
vt 0.3805 1.0157 0.2500
vt 0.5046 0.9994 0.2500
vt 0.5037 0.9995 0.2500
vt 0.4602 1.0052 0.2500
# 13 texture coords

g col_Brazier_03_Frame
s 1
f 1/1/1 2/1/2 3/2/3 4/3/4 
f 5/4/5 6/4/6 2/1/2 1/1/1 
f 7/5/7 6/4/6 5/4/5 8/5/8 
f 9/6/9 7/5/7 8/5/8 10/7/10 
s 2
f 11/8/11 12/5/12 7/5/13 9/6/14 
f 12/5/12 13/4/15 6/4/16 7/5/13 
f 13/4/15 14/1/17 2/1/18 6/4/16 
f 15/9/19 3/2/20 2/1/18 14/1/17 
f 15/10/19 16/11/21 3/10/20 
f 17/9/22 18/1/23 1/1/24 4/3/25 
f 17/9/22 4/3/25 19/9/26 
f 18/1/23 20/4/27 5/4/28 1/1/24 
f 20/4/27 21/5/29 8/5/30 5/4/28 
f 21/5/29 22/8/31 10/7/32 8/5/30 
f 10/7/32 22/8/31 23/12/33 24/13/34 
f 25/12/35 17/10/22 19/13/26 
s 1
f 26/1/36 4/3/4 3/2/3 27/1/37 
f 28/4/38 26/1/36 27/1/37 29/4/39 
f 30/5/40 31/5/41 28/4/38 29/4/39 
f 32/6/42 33/7/43 31/5/41 30/5/40 
s 2
f 34/8/44 32/6/45 30/5/46 35/5/47 
f 35/5/47 30/5/46 29/4/48 36/4/49 
f 36/4/49 29/4/48 27/1/50 37/1/51 
f 27/1/50 3/2/20 38/9/52 37/1/51 
f 38/10/52 3/10/20 16/11/21 
f 39/9/53 19/9/26 4/3/25 26/1/54 
f 39/9/53 26/1/54 40/1/55 
f 40/1/55 26/1/54 28/4/56 41/4/57 
f 41/4/57 28/4/56 31/5/58 42/5/59 
f 42/5/59 31/5/58 33/7/60 43/8/61 
f 33/7/60 44/13/34 45/12/62 43/8/61 
f 25/12/35 19/13/26 39/10/53 
f 46/11/63 11/8/11 9/10/14 
f 32/10/45 34/8/44 47/11/64 
s 1
f 48/1/65 49/3/66 50/2/67 51/1/68 
f 52/4/69 48/1/65 51/1/68 53/4/70 
f 54/5/71 55/5/72 52/4/69 53/4/70 
f 9/6/9 10/7/10 55/5/72 54/5/71 
s 2
f 56/8/73 9/6/14 54/5/74 57/5/75 
f 57/5/75 54/5/74 53/4/76 58/4/77 
f 58/4/77 53/4/76 51/1/78 59/1/79 
f 51/1/78 50/2/80 60/9/81 59/1/79 
f 60/10/81 50/10/80 61/11/82 
f 62/9/83 63/9/84 49/3/85 48/1/86 
f 62/9/83 48/1/86 64/1/87 
f 64/1/87 48/1/86 52/4/88 65/4/89 
f 65/4/89 52/4/88 55/5/90 66/5/91 
f 66/5/91 55/5/90 10/7/32 67/8/92 
f 10/7/93 24/13/34 23/12/93 
f 23/12/94 67/8/92 10/7/94 
f 68/12/93 63/13/84 62/10/83 
s 1
f 69/1/95 70/1/96 50/2/67 49/3/66 
f 71/4/97 72/4/98 70/1/96 69/1/95 
f 73/5/99 72/4/98 71/4/97 74/5/100 
f 32/6/42 73/5/99 74/5/100 33/7/43 
s 2
f 75/8/101 76/5/102 73/5/103 32/6/45 
f 76/5/102 77/4/104 72/4/105 73/5/103 
f 77/4/104 78/1/106 70/1/107 72/4/105 
f 79/9/108 50/2/80 70/1/107 78/1/106 
f 79/10/108 61/11/82 50/10/80 
f 80/9/109 81/1/110 69/1/111 49/3/85 
f 80/9/109 49/3/85 63/9/84 
f 81/1/110 82/4/112 71/4/113 69/1/111 
f 82/4/112 83/5/114 74/5/115 71/4/113 
f 83/5/114 84/8/116 33/7/60 74/5/115 
f 33/7/117 84/8/116 45/12/117 
f 45/12/93 44/13/34 33/7/93 
f 68/12/93 80/10/109 63/13/84 
f 46/11/63 9/10/14 56/8/73 
f 32/10/45 47/11/64 75/8/101 
# 50 polygons - 20 triangles

